<?xml version="1.0" encoding="UTF-8" standalone="no"?>
<!-- Created with Inkscape (http://www.inkscape.org/) -->

<svg
   width="262.952mm"
   height="262.952mm"
   viewBox="0 0 262.952 262.952"
   version="1.1"
   id="svg1"
   xml:space="preserve"
   xmlns="http://www.w3.org/2000/svg"
   xmlns:svg="http://www.w3.org/2000/svg"><defs
     id="defs1" /><g
     id="layer1"
     transform="translate(406.53435,-288.48683)"><circle
       stroke="#ffffff"
       stroke-width="2.58811"
       stroke-miterlimit="10"
       cx="-275.05835"
       cy="419.96283"
       r="130.18195"
       id="circle45" /><circle
       fill="#ffffff"
       cx="-275.05835"
       cy="419.96283"
       r="98.865814"
       id="circle46"
       style="stroke-width:0.517622" /><circle
       fill="none"
       stroke="#ffffff"
       stroke-width="2.58811"
       stroke-miterlimit="10"
       cx="-275.05835"
       cy="419.96283"
       r="97.571754"
       id="circle64" /><path
       d="m -350.58281,347.93818 2.59633,-2.31691 -6.71864,-15.34939 -0.53064,0.47353 14.45079,8.44939 2.71004,-2.41838 -16.30402,-9.07649 -3.12697,2.79044 z m 0.16334,-6.0352 6.29184,-5.6147 -2.28598,-1.87499 -5.60959,5.00588 z m 14.82296,-6.88474 2.64953,-1.60704 -7.12629,-11.74913 -0.19475,0.26666 14.72668,6.99067 3.12731,-1.89683 -9.14167,-15.0719 -2.67124,1.62021 7.1836,11.89261 0.28162,-0.31935 -14.784,-7.13415 -3.19246,1.93635 z m 21.35685,-11.43289 3.03102,-1.17611 -5.33842,-13.75798 5.30428,-2.05819 -1.03828,-2.67582 -13.59223,5.27411 1.03829,2.67582 5.25692,-2.03981 z m 11.51411,-3.91369 3.19673,-0.8271 -4.41545,-17.06564 -3.19674,0.8271 z m 8.14365,-2.02158 3.27075,-0.45322 -1.00404,-7.24596 7.57304,-1.04937 -0.39394,-2.84303 -7.57305,1.04936 -0.62752,-4.52873 8.37815,-1.16092 -0.39395,-2.84304 -11.6489,1.61414 z m 13.47014,-1.87386 3.47892,0.0782 5.5638,-15.80469 -0.71102,-0.016 4.79678,16.03772 3.63128,0.0817 -5.72347,-17.76079 -4.18994,-0.0942 z m 4.23797,-4.29999 8.43066,0.18962 -0.3914,-2.93054 -7.5165,-0.16906 z m 20.17818,6.35322 c 4.24674,0.78125 7.17622,-0.82341 7.77824,-4.0959 1.14889,-6.2452 -8.3939,-5.75385 -7.75052,-9.25116 0.24816,-1.34897 1.60549,-1.84823 3.75384,-1.45301 1.44889,0.26655 2.97213,0.83086 4.10887,1.53067 l 1.39763,-2.40298 c -1.3294,-0.91605 -3.08866,-1.60125 -4.78735,-1.91375 -4.14682,-0.76287 -7.31031,0.85039 -7.90774,4.0979 -1.08915,5.92045 8.35773,5.66971 7.70975,9.19201 -0.22978,1.24904 -1.47599,1.84622 -3.62434,1.451 -1.57379,-0.28952 -3.42838,-1.01809 -4.9984,-2.03005 l -1.40223,2.42796 c 1.69693,1.16444 3.72379,2.07966 5.72225,2.44731 z m 17.92305,4.89595 c 1.72468,0.60825 3.73671,0.85996 5.39498,0.66372 l 0.0994,-2.49666 c -1.19759,0.0355 -2.64744,-0.20648 -3.79723,-0.61197 -3.64101,-1.28408 -5.0803,-4.45807 -3.76244,-8.19489 1.25028,-3.54519 4.0115,-4.80686 7.50878,-3.57347 1.31747,0.46463 2.73365,1.26034 3.65952,2.07166 l 1.73108,-2.08283 c -1.2007,-1.17758 -2.70285,-2.11134 -4.33173,-2.6858 -5.26987,-1.85852 -10.06396,0.35607 -11.90559,5.57805 -1.77405,5.03033 0.42077,9.57504 5.4032,11.33219 z m 8.59147,3.37679 2.95584,1.4718 7.85713,-15.77967 -2.95584,-1.47179 z m 11.35714,6.64762 c 3.61953,2.3546 6.94084,2.00018 8.75527,-0.78899 3.46264,-5.32283 -5.53499,-8.5398 -3.59591,-11.52059 0.74793,-1.14973 2.19288,-1.0885 4.02393,0.10265 1.2349,0.80333 2.4239,1.91012 3.20401,2.99334 l 2.21439,-1.68054 c -0.87478,-1.35691 -2.23514,-2.66608 -3.68295,-3.60792 -3.53437,-2.29919 -7.075,-2.02685 -8.87558,0.74103 -3.28259,5.04605 5.53396,8.44823 3.58102,11.45031 -0.69252,1.06456 -2.07256,1.13646 -3.90362,-0.0547 -1.34135,-0.87259 -2.77303,-2.25845 -3.83302,-3.79645 l -2.22824,1.70183 c 1.11849,1.72756 2.63739,3.35198 4.3407,4.46002 z m 11.7299,8.44346 2.4273,2.163 9.81797,-11.01763 4.24776,3.78524 1.90952,-2.14284 -10.88489,-9.69969 -1.90952,2.14285 4.20984,3.75144 z"
       id="text44"
       style="font-weight:bold;font-size:25.4px;font-family:Cantarell;-inkscape-font-specification:'Cantarell Bold';text-align:center;letter-spacing:0.939271px;text-anchor:middle;fill:#ffffff;stroke-width:7.464;stroke-linecap:square;paint-order:stroke markers fill"
       aria-label="ANTIFASCIST" /><path
       d="m -308.10953,389.79051 -45.67754,22.94353 v 14.87663 l 45.67754,24.30548 v -19.69582 l -28.39132,-14.03851 v 2.93342 l 28.39132,-13.20039 z"
       id="path44"
       style="font-weight:800;font-size:104.765px;font-family:Cantarell;-inkscape-font-specification:'Cantarell Ultra-Bold';text-align:center;letter-spacing:3.87414px;text-anchor:middle;fill:#ff0000;stroke-width:10.0702;stroke-linecap:square;paint-order:stroke markers fill" /><path
       style="font-weight:800;font-size:104.765px;font-family:Cantarell;-inkscape-font-specification:'Cantarell Ultra-Bold';text-align:center;letter-spacing:3.87414px;text-anchor:middle;fill:#000000;stroke-width:10.0702;stroke-linecap:square;paint-order:stroke markers fill"
       d="m -295.22557,464.69748 h 16.55287 l 23.78166,-89.46931 h -17.70529 z"
       id="path45" /><path
       d="m -242.00714,450.65897 45.67754,-22.94353 v -14.87663 l -45.67754,-24.30548 v 19.69582 l 28.39131,14.03851 v -2.93342 l -28.39131,13.20039 z"
       id="path46"
       style="font-weight:800;font-size:104.765px;font-family:Cantarell;-inkscape-font-specification:'Cantarell Ultra-Bold';text-align:center;letter-spacing:3.87414px;text-anchor:middle;fill:#ff0000;stroke-width:10.0702;stroke-linecap:square;paint-order:stroke markers fill" /><path
       style="font-weight:bold;font-size:25.4px;font-family:Cantarell;-inkscape-font-specification:'Cantarell Bold';text-align:center;letter-spacing:3.35492px;text-anchor:middle;fill:#ffffff;stroke-width:7.464;stroke-linecap:square;paint-order:stroke markers fill"
       d="m -340.39376,522.81719 c 3.65276,2.30272 6.96868,1.90095 8.74312,-0.91382 3.38635,-5.3717 -5.65626,-8.45997 -3.75991,-11.46812 0.73145,-1.16028 2.17712,-1.11968 4.02499,0.0452 1.24623,0.78563 2.4509,1.87535 3.24639,2.94732 l 2.19019,-1.71196 c -0.89406,-1.34429 -2.27296,-2.63392 -3.73406,-3.55501 -3.56681,-2.24853 -7.1032,-1.92569 -8.8641,0.86759 -3.21026,5.09237 5.65393,8.36841 3.74403,11.39805 -0.67727,1.07434 -2.05614,1.16592 -3.90401,0.001 -1.35366,-0.85336 -2.80497,-2.21865 -3.8868,-3.74137 l -2.20373,1.73345 c 1.14302,1.71142 2.68495,3.314 4.40389,4.39763 z m 18.33537,9.53957 c 4.87737,2.03063 9.54259,0.011 11.67084,-5.10087 2.05015,-4.92427 0.25132,-9.52507 -4.48536,-11.49712 -4.83047,-2.01111 -9.44879,0.0281 -11.56728,5.11647 -2.05992,4.94772 -0.30798,9.52899 4.3818,11.48152 z m 1.33766,-2.5521 c -2.95456,-1.23009 -3.94408,-4.33838 -2.46992,-7.87917 1.38629,-3.32974 4.16621,-4.78614 6.98007,-3.61462 3.00146,1.24961 4.02812,4.40088 2.57349,7.89476 -1.40582,3.37665 -4.22287,4.79007 -7.08364,3.59903 z m 13.26357,7.47858 3.21809,0.73965 1.6386,-7.12932 7.45113,1.71256 0.64292,-2.79727 -7.45113,-1.71256 1.02412,-4.45582 8.24327,1.89462 0.64293,-2.79726 -11.46137,-2.63427 z m 21.49272,3.79751 3.24179,0.24725 1.12227,-14.71467 5.67312,0.43268 0.21828,-2.86188 -14.53738,-1.10876 -0.21828,2.86189 5.62248,0.42882 z m 17.8125,0.50869 3.48098,-0.41141 2.67415,-16.32712 -1.53869,0.18186 6.78501,15.20916 3.35485,-0.3965 3.05159,-18.11095 -3.27917,0.38756 -2.25268,16.43076 1.37679,-0.46964 -6.44952,-14.96747 -3.58187,0.42334 -2.57486,16.08519 1.16032,-0.13714 -5.73888,-15.23049 -3.68277,0.43526 z m 23.19882,-3.51703 3.30478,-1.0897 -0.042,-16.75536 -0.67543,0.22271 9.88399,13.51015 3.44952,-1.13742 -11.33357,-14.8241 -3.98021,1.3124 z m 2.55593,-5.46969 8.00866,-2.64071 -1.34891,-2.63092 -7.14025,2.35437 z m 18.3025,-2.06771 2.90269,-1.52003 -6.846,-13.07337 2.52017,-1.31971 c 1.84512,-0.96622 3.4083,-0.60925 4.20955,0.92085 0.77769,1.4851 0.33717,2.83399 -1.30544,3.69415 l -3.82525,2.00314 1.28436,2.45266 3.44273,-1.80282 c 3.55524,-1.86173 4.78671,-5.25911 3.17242,-8.34181 -1.50824,-2.8802 -4.48461,-3.47198 -7.92734,-1.66916 l -5.80539,3.04005 z m 8.86559,-4.64256 3.46523,-1.81461 -7.95162,-4.78167 -3.21772,1.68499 z m 8.33912,-5.0831 9.51194,-7.08698 -1.69966,-2.28123 -6.88445,5.12933 -2.82265,-3.78848 6.33451,-4.71959 -1.71484,-2.30161 -6.3345,4.7196 -2.57985,-3.46259 6.88445,-5.12934 -1.71484,-2.3016 -9.51194,7.08698 z"
       id="text67"
       aria-label="SOFTWARE" /></g></svg>
